<?xml version="1.0"?>
<svg xmlns="http://www.w3.org/2000/svg" id="Capa_1" enable-background="new 0 0 512 512" height="512px" viewBox="0 0 512 512" width="512px" class=""><g><g><g><path d="m280.374 467h-24.374-18.75l-28.918 15c12.812 18.62 29.136 30 47.668 30s34.856-11.38 47.668-30z" fill="#ffb64c" data-original="#F0DC51" class="" style="fill:#FFE846" data-old_color="#ffb64c"/><path d="m303.668 482-23.293-15h-24.375v45c18.532 0 34.856-11.38 47.668-30z" fill="#ff9100" data-original="#FFE529" class="" style="fill:#FFD329" data-old_color="#ff9100"/><path d="m305.374 407h-49.374-45.624l-25.084 15c1.978 10.67 4.431 20.843 7.712 30l25.496 15h37.5 41.25l21.746-15c3.281-9.157 5.735-19.33 7.712-30z" fill="#ffb64c" data-original="#F0DC51" class="" style="fill:#FFE846" data-old_color="#ffb64c"/><path d="m318.996 452c3.281-9.157 5.735-19.33 7.712-30l-21.334-15h-49.374v60h41.25z" fill="#ff9100" data-original="#FFE529" class="" style="fill:#FFD329" data-old_color="#ff9100"/><path d="m329.861 362-26.362-15h-47.499-45l-28.861 15c-.3 5.041-1.139 9.882-1.139 15 0 5.173.505 10.01.789 15l34.835 15h39.376 50.624l23.586-15c.284-4.99.789-9.827.789-15 .001-5.118-.838-9.959-1.138-15z" fill="#ffb64c" data-original="#F0DC51" class="" style="fill:#FFE846" data-old_color="#ffb64c"/><path d="m330.211 392c.284-4.99.789-9.827.789-15 0-5.118-.839-9.959-1.139-15l-26.362-15h-47.499v60h50.624z" fill="#ff9100" data-original="#FFE529" class="" style="fill:#FFD329" data-old_color="#ff9100"/><path d="m298.451 283.455h-42.451-42.451l-25.994 48.545 32.819 15h35.626 34.374l34.071-15z" fill="#ffb64c" data-original="#F0DC51" class="" style="fill:#FFE846" data-old_color="#ffb64c"/><path d="m324.445 332-25.994-48.545h-42.451v63.545h34.374z" fill="#ff9100" data-original="#FFE529" class="" style="fill:#FFD329" data-old_color="#ff9100"/><path d="m328.1 338.826-3.655-6.826h-68.445-68.445l-3.655 6.826c-1.165 7.469-1.296 15.388-1.761 23.174h73.861 73.861c-.465-7.786-.597-15.705-1.761-23.174z" fill="#704c55" data-original="#A2A2A2" class="" style="fill:#A2A2A2" data-old_color="#704c55"/><path d="m328.1 338.826-3.655-6.826h-68.445v30h73.861c-.465-7.786-.597-15.705-1.761-23.174z" fill="#5b362a" data-original="#A2A2A2" class="" style="fill:#A2A2A2" data-old_color="#5b362a"/><path d="m256 392h-74.211c.599 10.475 1.74 20.493 3.503 30h70.708 70.708c1.763-9.507 2.904-19.525 3.503-30z" fill="#704c55" data-original="#A2A2A2" class="" style="fill:#A2A2A2" data-old_color="#704c55"/><path d="m330.211 392h-74.211v30h70.708c1.763-9.507 2.904-19.525 3.503-30z" fill="#5b362a" data-original="#A2A2A2" class="" style="fill:#A2A2A2" data-old_color="#5b362a"/><path d="m256 452h-62.996c4.144 11.561 9.415 21.411 15.328 30h47.668 47.668c5.912-8.589 11.184-18.439 15.328-30z" fill="#704c55" data-original="#A2A2A2" class="" style="fill:#A2A2A2" data-old_color="#704c55"/><path d="m318.996 452h-62.996v30h47.668c5.912-8.589 11.184-18.439 15.328-30z" fill="#5b362a" data-original="#A2A2A2" class="" style="fill:#A2A2A2" data-old_color="#5b362a"/><path d="m313.598 159.804-52.749 129.73c36.357 80.464 116.894 132.466 205.151 132.466 8.291 0 15-6.709 15-15 0-109.38-65.713-207.016-167.402-247.196z" fill="#efe2dd" data-original="#EFE2DD" class="active-path" style="fill:#EFE2DD"/><path d="m198.402 159.804c-101.689 40.18-167.402 137.816-167.402 247.196 0 8.291 6.709 15 15 15 88.257 0 168.794-52.002 205.151-132.466z" fill="#fff5f5" data-original="#FFF5F5" class="" style="fill:#FFF5F5"/><path d="m201.156 85.781c-30-10.532-50.156-38.979-50.156-70.781 0-8.291 6.709-15 15-15s15 6.709 15 15c0 19.087 12.1 36.152 30.088 42.48 7.822 2.739 11.938 11.309 9.185 19.116-2.792 7.96-11.501 11.905-19.117 9.185z" fill="#704c55" data-original="#A2A2A2" class="" style="fill:#A2A2A2" data-old_color="#704c55"/><path d="m291.728 76.597c-2.754-7.808 1.362-16.377 9.185-19.116 17.987-6.329 30.087-23.394 30.087-42.481 0-8.291 6.709-15 15-15s15 6.709 15 15c0 31.802-20.156 60.249-50.156 70.781-7.61 2.718-16.322-1.217-19.116-9.184z" fill="#5b362a" data-original="#A2A2A2" class="" style="fill:#A2A2A2" data-old_color="#5b362a"/><path d="m256 30c-41.422 0-75 34.578-75 76 0 41.42 33.578 75 75 75s75-33.58 75-75c0-41.422-33.578-76-75-76z" fill="#ffb64c" data-original="#F0DC51" class="" style="fill:#FFE846" data-old_color="#ffb64c"/><path d="m331 106c0-41.422-33.578-76-75-76v151c41.422 0 75-33.58 75-75z" fill="#ff9100" data-original="#FFE529" class="" style="fill:#FFD329" data-old_color="#ff9100"/><path d="m256 121c-41.353 0-75 40.371-75 90s33.647 91 75 91 75-41.371 75-91-33.647-90-75-90z" fill="#704c55" data-original="#A2A2A2" class="" style="fill:#A2A2A2" data-old_color="#704c55"/><path d="m331 211c0-49.629-33.647-90-75-90v181c41.353 0 75-41.371 75-91z" fill="#5b362a" data-original="#A2A2A2" class="" style="fill:#A2A2A2" data-old_color="#5b362a"/></g></g></g> </svg>
